# xmcd
#
# Track frame offsets:
#	150
#	18127
#	35641
#	53290
#	63974
#	78530
#	95700
#	110989
#	140914
#	160565
#	178476
#	205141
#	224527
#	255202
#	268031
#	285316
#	306660
#
# Disc length: 4541 seconds
#
# Revision: 1
# Processed by: cddbd v1.5.2PL0 Copyright (c) Steve Scherf et al.
# Submitted via: audiograbber 1.83.01
#
DISCID=fb11bb11
DTITLE=Allison Moorer - The Ultimate Collection
DYEAR=2008
DGENRE=Country
TTITLE0=Set You Free
TTITLE1=A Soft Place To Fall
TTITLE2=Alabama Song
TTITLE3=The One That Got Away (Got Away With My Heart)
TTITLE4=The Hardest Part
TTITLE5=Send Down An Angel
TTITLE6=Is It Worth It?
TTITLE7=No Next Time
TTITLE8=Day You Said Goodbye
TTITLE9=Think It Over
TTITLE10=Ruby Jewel Was Here
TTITLE11=Tumbling Down
TTITLE12=Dying Breed
TTITLE13=Mark My Word
TTITLE14=Let Go
TTITLE15=Is Heaven Good Enough For You (live featuring Shelby Lynne)
TTITLE16=Feeling That Feeling Again - Cold Cold Earth (hidden track)
EXTD=
EXTT0=
EXTT1=
EXTT2=
EXTT3=
EXTT4=
EXTT5=
EXTT6=
EXTT7=
EXTT8=
EXTT9=
EXTT10=
EXTT11=
EXTT12=
EXTT13=
EXTT14=
EXTT15=
EXTT16=
PLAYORDER=
